<?xml version="1.0" standalone="no"?>
<!DOCTYPE svg PUBLIC "-//W3C//DTD SVG 1.1//EN" "http://www.w3.org/Graphics/SVG/1.1/DTD/svg11.dtd">
<svg xmlns="http://www.w3.org/2000/svg" xmlns:xlink="http://www.w3.org/1999/xlink" version="1.0" x="0" y="0" width="197.66636657714844" height="68.15608978271484" viewBox="71.16681549072266 90.92195770263672 197.6663690185547 68.1560922241211" preserveAspectRatio="xMidYMid meet" color-interpolation-filters="sRGB"><g><defs><linearGradient id="92" x1="0%" y1="0%" x2="100%" y2="0%"><stop offset="0%" stop-color="#fa71cd"/> <stop offset="100%" stop-color="#9b59b6"/></linearGradient><linearGradient id="93" x1="0%" y1="0%" x2="100%" y2="0%"><stop offset="0%" stop-color="#f9d423"/> <stop offset="100%" stop-color="#f83600"/></linearGradient><linearGradient id="94" x1="0%" y1="0%" x2="100%" y2="0%"><stop offset="0%" stop-color="#0064d2"/> <stop offset="100%" stop-color="#1cb0f6"/></linearGradient><linearGradient id="95" x1="0%" y1="0%" x2="100%" y2="0%"><stop offset="0%" stop-color="#f00978"/> <stop offset="100%" stop-color="#3f51b1"/></linearGradient><linearGradient id="96" x1="0%" y1="0%" x2="100%" y2="0%"><stop offset="0%" stop-color="#7873f5"/> <stop offset="100%" stop-color="#ec77ab"/></linearGradient><linearGradient id="97" x1="0%" y1="0%" x2="100%" y2="0%"><stop offset="0%" stop-color="#f9d423"/> <stop offset="100%" stop-color="#e14fad"/></linearGradient><linearGradient id="98" x1="0%" y1="0%" x2="100%" y2="0%"><stop offset="0%" stop-color="#009efd"/> <stop offset="100%" stop-color="#2af598"/></linearGradient><linearGradient id="99" x1="0%" y1="0%" x2="100%" y2="0%"><stop offset="0%" stop-color="#ffcc00"/> <stop offset="100%" stop-color="#00b140"/></linearGradient><linearGradient id="100" x1="0%" y1="0%" x2="100%" y2="0%"><stop offset="0%" stop-color="#d51007"/> <stop offset="100%" stop-color="#ff8177"/></linearGradient><linearGradient id="102" x1="0%" y1="0%" x2="100%" y2="0%"><stop offset="0%" stop-color="#a2b6df"/> <stop offset="100%" stop-color="#0c3483"/></linearGradient><linearGradient id="103" x1="0%" y1="0%" x2="100%" y2="0%"><stop offset="0%" stop-color="#7ac5d8"/> <stop offset="100%" stop-color="#eea2a2"/></linearGradient><linearGradient id="104" x1="0%" y1="0%" x2="100%" y2="0%"><stop offset="0%" stop-color="#00ecbc"/> <stop offset="100%" stop-color="#007adf"/></linearGradient><linearGradient id="105" x1="0%" y1="0%" x2="100%" y2="0%"><stop offset="0%" stop-color="#b88746"/> <stop offset="100%" stop-color="#fdf5a6"/></linearGradient></defs><g fill="#fff" class="icon-text-wrapper icon-svg-group iconsvg" transform="translate(73.10472106933594,92.85985946655273)"><g class="iconsvg-imagesvg" transform="translate(0,2.1401405334472656)"><g><rect fill="#fff" fill-opacity="0" stroke-width="2" x="0" y="0" width="60" height="60" class="image-rect"/> <svg filter="url(#colors8296466257)" x="0" y="0" width="60" height="60" filtersec="colorsf4425378738" class="image-svg-svg primary" style="overflow: visible;"><svg xmlns="http://www.w3.org/2000/svg" x="0" y="0" viewBox="1 1 62 62" xml:space="preserve"><path d="M45 9v6h10V9H45zM53 13h-6v-2h6V13zM45 23h10v-6H45V23zM47 19h6v2h-6V19zM45 31h10v-6H45V31zM47 27h6v2h-6V27zM9 27h34V9H9V27zM19 18.414V25h-4v-6.586l1-1V15h2v2.414L19 18.414zM29 18.414V25h-4v-6.586l1-1V15h2v2.414L29 18.414zM37 25h-2v-6h2V25zM11 11h30v14h-2v-8h-6v8h-2v-7.414l-1-1V13h-6v3.586l-1 1V25h-2v-7.414l-1-1V13h-6v3.586l-1 1V25h-2V11zM9 47h34V29H9V47zM19 38.414V45h-4v-6.586l1-1V35h2v2.414L19 38.414zM27 45h-2v-6h2V45zM37 45h-4v-8h4V45zM11 31h30v14h-2V35h-8v10h-2v-8h-6v8h-2v-7.414l-1-1V33h-6v3.586l-1 1V45h-2V31zM50 35c-2.757 0-5 2.243-5 5s2.243 5 5 5 5-2.243 5-5S52.757 35 50 35zM50 43c-1.654 0-3-1.346-3-3s1.346-3 3-3 3 1.346 3 3S51.654 43 50 43z"/><path d="M59,61V6c0-2.757-2.243-5-5-5H10C7.243,1,5,3.243,5,6v55H1v2h62v-2H59z M15,51h34v6H15V51z M7,49V7h50v42H7z M10,3h44 c1.302,0,2.402,0.839,2.816,2H7.184C7.598,3.839,8.698,3,10,3z M7,51h6v8h38v-8h6v10H7V51z"/></svg></svg> <defs><filter id="colors8296466257"><feColorMatrix type="matrix" values="0 0 0 0 0.99609375  0 0 0 0 0.99609375  0 0 0 0 0.99609375  0 0 0 1 0" class="icon-feColorMatrix "/></filter> <filter id="colorsf4425378738"><feColorMatrix type="matrix" values="0 0 0 0 0.99609375  0 0 0 0 0.99609375  0 0 0 0 0.99609375  0 0 0 1 0" class="icon-fecolormatrix"/></filter> <filter id="colorsb3909918969"><feColorMatrix type="matrix" values="0 0 0 0 0  0 0 0 0 0  0 0 0 0 0  0 0 0 1 0" class="icon-fecolormatrix"/></filter></defs></g></g> <g transform="translate(67,0)"><g fill-rule="" class="tp-name iconsvg-namesvg" transform="translate(0,0)"><g transform="scale(1)"><g><path d="M11.7 0.26Q8.95 0.26 6.74-0.68 4.53-1.62 3.25-3.4 1.96-5.17 1.93-7.59L1.93-7.59 7.59-7.59Q7.7-5.97 8.74-5.02 9.78-4.08 11.59-4.08L11.59-4.08Q13.44-4.08 14.5-4.97 15.56-5.85 15.56-7.29L15.56-7.29Q15.56-8.46 14.84-9.21 14.12-9.97 13.05-10.4 11.97-10.84 10.08-11.37L10.08-11.37Q7.51-12.12 5.91-12.86 4.3-13.59 3.15-15.08 2-16.58 2-19.07L2-19.07Q2-21.41 3.17-23.15 4.34-24.88 6.46-25.81 8.57-26.73 11.29-26.73L11.29-26.73Q15.37-26.73 17.92-24.75 20.46-22.77 20.73-19.22L20.73-19.22 14.91-19.22Q14.84-20.58 13.76-21.47 12.69-22.35 10.91-22.35L10.91-22.35Q9.36-22.35 8.44-21.56 7.51-20.77 7.51-19.26L7.51-19.26Q7.51-18.2 8.21-17.5 8.91-16.8 9.95-16.37 10.99-15.93 12.88-15.37L12.88-15.37Q15.44-14.61 17.07-13.86 18.69-13.1 19.86-11.59 21.03-10.08 21.03-7.63L21.03-7.63Q21.03-5.51 19.94-3.7 18.84-1.89 16.73-0.81 14.61 0.26 11.7 0.26L11.7 0.26ZM48.37-26.35L54.33-26.35 54.33 0 49.05 0 49.05-17.14 41.99 0 37.98 0 30.89-17.14 30.89 0 25.6 0 25.6-26.35 31.6-26.35 39.99-6.76 48.37-26.35ZM77.44 0L75.7-5.02 65.21-5.02 63.47 0 57.92 0 67.4-26.39 73.55-26.39 83.03 0 77.44 0ZM66.64-9.25L74.27-9.25 70.46-20.28 66.64-9.25ZM106.29 0L100.17 0 94.36-10.27 91.86-10.27 91.86 0 86.58 0 86.58-26.35 96.47-26.35Q99.53-26.35 101.68-25.28 103.83-24.2 104.91-22.37 105.99-20.54 105.99-18.27L105.99-18.27Q105.99-15.67 104.48-13.57 102.97-11.48 99.98-10.69L99.98-10.69 106.29 0ZM91.86-21.98L91.86-14.23 96.28-14.23Q98.43-14.23 99.49-15.27 100.55-16.31 100.55-18.16L100.55-18.16Q100.55-19.97 99.49-20.97 98.43-21.98 96.28-21.98L96.28-21.98 91.86-21.98ZM109.38-26.35L128.72-26.35 128.72-22.09 121.69-22.09 121.69 0 116.41 0 116.41-22.09 109.38-22.09 109.38-26.35Z" transform="translate(-1.9300000667572021, 26.729999542236328)"/></g> <g fill="#fff" transform="translate(0,29.990001678466797)"><g transform="scale(0.98639)"><path d="M15.88-20.27L20.21-20.27 12.78 0 7.84 0 0.41-20.27 4.76-20.27 10.34-4.15 15.88-20.27ZM34.41-16.99L26.71-16.99 26.71-11.9 33.54-11.9 33.54-8.68 26.71-8.68 26.71-3.31 34.41-3.31 34.41 0 22.65 0 22.65-20.3 34.41-20.3 34.41-16.99ZM55.43-20.3L55.43 0 51.36 0 42.16-13.91 42.16 0 38.09 0 38.09-20.3 42.16-20.3 51.36-6.36 51.36-20.3 55.43-20.3ZM66.52-20.27Q69.71-20.27 72.14-19.02 74.56-17.77 75.88-15.46 77.21-13.15 77.21-10.1L77.21-10.1Q77.21-7.06 75.88-4.78 74.56-2.5 72.14-1.25 69.71 0 66.52 0L66.52 0 59.44 0 59.44-20.27 66.52-20.27ZM66.37-3.46Q69.57-3.46 71.31-5.2 73.05-6.94 73.05-10.1L73.05-10.1Q73.05-13.27 71.31-15.05 69.57-16.84 66.37-16.84L66.37-16.84 63.5-16.84 63.5-3.46 66.37-3.46ZM80.25-20.27L84.32-20.27 84.32 0 80.25 0 80.25-20.27ZM105.66-20.3L105.66 0 101.59 0 92.39-13.91 92.39 0 88.33 0 88.33-20.3 92.39-20.3 101.59-6.36 101.59-20.3 105.66-20.3ZM128.45-14.17L123.78-14.17Q123.08-15.45 121.86-16.11 120.64-16.78 119.02-16.78L119.02-16.78Q117.22-16.78 115.82-15.97 114.43-15.16 113.64-13.65 112.86-12.14 112.86-10.16L112.86-10.16Q112.86-8.13 113.66-6.62 114.46-5.11 115.88-4.3 117.3-3.48 119.19-3.48L119.19-3.48Q121.51-3.48 122.99-4.72 124.47-5.95 124.94-8.16L124.94-8.16 117.97-8.16 117.97-11.27 128.95-11.27 128.95-7.72Q128.54-5.6 127.2-3.8 125.87-2 123.76-0.91 121.66 0.17 119.04 0.17L119.04 0.17Q116.11 0.17 113.75-1.15 111.38-2.47 110.03-4.82 108.68-7.17 108.68-10.16L108.68-10.16Q108.68-13.15 110.03-15.52 111.38-17.89 113.75-19.21 116.11-20.53 119.02-20.53L119.02-20.53Q122.44-20.53 124.97-18.86 127.49-17.19 128.45-14.17L128.45-14.17Z" transform="translate(-0.4099999964237213, 20.530000686645508)"/></g></g></g></g> <g fill-rule="" class="tp-slogan iconsvg-slogansvg" fill="#fff" transform="translate(5,56.40827941894531)"><rect x="0" height="1" y="3.434999942779541" width="46.305283546447754"/> <rect height="1" y="3.434999942779541" width="46.305283546447754" x="70.4852819442749"/> <g transform="translate(49.305283546447754,0)"><g transform="scale(1)"><path d="M4.43-3.20L2.06-3.20L2.44-4.40C2.58-4.84 2.72-5.28 2.84-5.72C2.97-6.15 3.10-6.60 3.22-7.06L3.26-7.06C3.39-6.60 3.52-6.15 3.65-5.72C3.78-5.28 3.91-4.84 4.06-4.40ZM4.68-2.40L5.42 0L6.49 0L3.83-7.87L2.70-7.87L0.04 0L1.06 0L1.81-2.40ZM8.76-7.03L8.76 0L9.77 0L9.77-7.03L12.14-7.03L12.14-7.87L6.38-7.87L6.38-7.03ZM14.71-4.07L12.42 0L13.48 0L14.62-2.12C14.71-2.32 14.81-2.51 14.92-2.72C15.02-2.92 15.13-3.14 15.24-3.38L15.29-3.38C15.42-3.14 15.53-2.92 15.64-2.72C15.75-2.51 15.86-2.32 15.96-2.12L17.11 0L18.22 0L15.92-4.02L18.07-7.87L17.02-7.87L15.97-5.86C15.88-5.67 15.79-5.49 15.70-5.32C15.62-5.15 15.52-4.95 15.41-4.72L15.36-4.72C15.24-4.95 15.13-5.15 15.04-5.32C14.95-5.49 14.85-5.67 14.75-5.86L13.68-7.87L12.58-7.87Z" transform="translate(-0.036000000000000004, 7.872)"/></g></g></g></g></g><defs v-gra="od"/></g></svg>